<svg width="2769" height="1411" xmlns="http://www.w3.org/2000/svg" xmlns:xlink="http://www.w3.org/1999/xlink" xml:space="preserve" overflow="hidden"><g transform="translate(-682 -252)"><g><rect x="2118.5" y="1018.28" width="619.224" height="193.223" fill="#58BCFF" fill-opacity="0.529412"/><path d="M2737.72 1018.28 2756.5 999.5 2756.5 1192.72 2737.72 1211.5Z" fill="#4797CD" fill-rule="evenodd" fill-opacity="0.529412"/><path d="M2118.5 1018.28 2137.28 999.5 2756.5 999.5 2737.72 1018.28Z" fill="#79C9FF" fill-rule="evenodd" fill-opacity="0.529412"/><path d="M2118.5 1018.28 2137.28 999.5 2756.5 999.5 2756.5 1192.72 2737.72 1211.5 2118.5 1211.5ZM2118.5 1018.28 2737.72 1018.28 2756.5 999.5M2737.72 1018.28 2737.72 1211.5" stroke="#002060" stroke-width="3.4375" stroke-linecap="butt" stroke-linejoin="miter" stroke-miterlimit="8" stroke-opacity="1" fill="none" fill-rule="evenodd"/><text fill="#595959" fill-opacity="1" font-family="Times New Roman,Times New Roman_MSFontService,sans-serif" font-style="italic" font-variant="normal" font-weight="400" font-stretch="normal" font-size="55" text-anchor="start" direction="ltr" writing-mode="lr-tb" unicode-bidi="normal" text-decoration="none" transform="matrix(1 0 0 1 2143.5 1096)">AM3. </text><text fill="#002060" fill-opacity="1" font-family="Times New Roman,Times New Roman_MSFontService,sans-serif" font-style="normal" font-variant="normal" font-weight="700" font-stretch="normal" font-size="55" text-anchor="start" direction="ltr" writing-mode="lr-tb" unicode-bidi="normal" text-decoration="none" transform="matrix(1 0 0 1 2278.14 1096)">Knowledge Store</text><text fill="#595959" fill-opacity="1" font-family="Times New Roman,Times New Roman_MSFontService,sans-serif" font-style="italic" font-variant="normal" font-weight="400" font-stretch="normal" font-size="55" text-anchor="start" direction="ltr" writing-mode="lr-tb" unicode-bidi="normal" text-decoration="none" transform="matrix(1 0 0 1 2579.7 1190)">{FA3}</text><rect x="693.5" y="274.548" width="659.952" height="265.952" fill="#99D6FF" fill-opacity="1"/><path d="M1353.45 274.548 1373.5 254.5 1373.5 520.452 1353.45 540.5Z" fill="#7BACCD" fill-rule="evenodd" fill-opacity="1"/><path d="M693.5 274.548 713.548 254.5 1373.5 254.5 1353.45 274.548Z" fill="#ADDEFF" fill-rule="evenodd" fill-opacity="1"/><path d="M693.5 274.548 713.548 254.5 1373.5 254.5 1373.5 520.452 1353.45 540.5 693.5 540.5ZM693.5 274.548 1353.45 274.548 1373.5 254.5M1353.45 274.548 1353.45 540.5" stroke="#002060" stroke-width="3.4375" stroke-linecap="butt" stroke-linejoin="miter" stroke-miterlimit="8" stroke-opacity="1" fill="none" fill-rule="evenodd"/><text fill="#595959" fill-opacity="1" font-family="Times New Roman,Times New Roman_MSFontService,sans-serif" font-style="italic" font-variant="normal" font-weight="400" font-stretch="normal" font-size="55" text-anchor="start" direction="ltr" writing-mode="lr-tb" unicode-bidi="normal" text-decoration="none" transform="matrix(1 0 0 1 718.73 433)">AD1. </text><text fill="#002060" fill-opacity="1" font-family="Times New Roman,Times New Roman_MSFontService,sans-serif" font-style="normal" font-variant="normal" font-weight="700" font-stretch="normal" font-size="55" text-anchor="start" direction="ltr" writing-mode="lr-tb" unicode-bidi="normal" text-decoration="none" transform="matrix(1 0 0 1 847.063 433)">Infrastructure</text><text fill="#002060" fill-opacity="1" font-family="Times New Roman,Times New Roman_MSFontService,sans-serif" font-style="normal" font-variant="normal" font-weight="700" font-stretch="normal" font-size="55" text-anchor="start" direction="ltr" writing-mode="lr-tb" unicode-bidi="normal" text-decoration="none" transform="matrix(1 0 0 1 718.73 499)">Driver Library </text><text fill="#595959" fill-opacity="1" font-family="Times New Roman,Times New Roman_MSFontService,sans-serif" font-style="italic" font-variant="normal" font-weight="400" font-stretch="normal" font-size="55" text-anchor="start" direction="ltr" writing-mode="lr-tb" unicode-bidi="normal" text-decoration="none" transform="matrix(1 0 0 1 1170.92 499)">{FB5}</text><rect x="1370.5" y="273.026" width="2057.47" height="264.474" fill="#99D6FF" fill-opacity="1"/><path d="M3427.97 273.026 3446.5 254.5 3446.5 518.974 3427.97 537.5Z" fill="#7BACCD" fill-rule="evenodd" fill-opacity="1"/><path d="M1370.5 273.026 1389.03 254.5 3446.5 254.5 3427.97 273.026Z" fill="#ADDEFF" fill-rule="evenodd" fill-opacity="1"/><path d="M1370.5 273.026 1389.03 254.5 3446.5 254.5 3446.5 518.974 3427.97 537.5 1370.5 537.5ZM1370.5 273.026 3427.97 273.026 3446.5 254.5M3427.97 273.026 3427.97 537.5" stroke="#002060" stroke-width="3.4375" stroke-linecap="butt" stroke-linejoin="miter" stroke-miterlimit="8" stroke-opacity="1" fill="none" fill-rule="evenodd"/><text fill="#595959" fill-opacity="1" font-family="Times New Roman,Times New Roman_MSFontService,sans-serif" font-style="italic" font-variant="normal" font-weight="400" font-stretch="normal" font-size="55" text-anchor="start" direction="ltr" writing-mode="lr-tb" unicode-bidi="normal" text-decoration="none" transform="matrix(1 0 0 1 1395.56 431)">AD3. </text><text fill="#002060" fill-opacity="1" font-family="Times New Roman,Times New Roman_MSFontService,sans-serif" font-style="normal" font-variant="normal" font-weight="700" font-stretch="normal" font-size="55" text-anchor="start" direction="ltr" writing-mode="lr-tb" unicode-bidi="normal" text-decoration="none" transform="matrix(1 0 0 1 1523.89 431)">Domain Operator</text><text fill="#002060" fill-opacity="1" font-family="Times New Roman,Times New Roman_MSFontService,sans-serif" font-style="normal" font-variant="normal" font-weight="700" font-stretch="normal" font-size="55" text-anchor="start" direction="ltr" writing-mode="lr-tb" unicode-bidi="normal" text-decoration="none" transform="matrix(1 0 0 1 1395.56 497)">Library</text><text fill="#595959" fill-opacity="1" font-family="Times New Roman,Times New Roman_MSFontService,sans-serif" font-style="italic" font-variant="normal" font-weight="400" font-stretch="normal" font-size="55" text-anchor="start" direction="ltr" writing-mode="lr-tb" unicode-bidi="normal" text-decoration="none" transform="matrix(1 0 0 1 1706.08 497)">{FD5, FA5, FC5}   </text><rect x="2116.5" y="355.035" width="896.465" height="184.465" fill="#99D6FF" fill-opacity="1"/><path d="M3012.97 355.035 3032.5 335.5 3032.5 519.965 3012.97 539.5Z" fill="#7BACCD" fill-rule="evenodd" fill-opacity="1"/><path d="M2116.5 355.035 2136.04 335.5 3032.5 335.5 3012.97 355.035Z" fill="#ADDEFF" fill-rule="evenodd" fill-opacity="1"/><path d="M2116.5 355.035 2136.04 335.5 3032.5 335.5 3032.5 519.965 3012.97 539.5 2116.5 539.5ZM2116.5 355.035 3012.97 355.035 3032.5 335.5M3012.97 355.035 3012.97 539.5" stroke="#002060" stroke-width="3.4375" stroke-linecap="butt" stroke-linejoin="miter" stroke-miterlimit="8" stroke-opacity="1" fill="none" fill-rule="evenodd"/><text fill="#595959" fill-opacity="1" font-family="Times New Roman,Times New Roman_MSFontService,sans-serif" font-style="italic" font-variant="normal" font-weight="400" font-stretch="normal" font-size="55" text-anchor="start" direction="ltr" writing-mode="lr-tb" unicode-bidi="normal" text-decoration="none" transform="matrix(1 0 0 1 2207.97 433)">AD2. </text><text fill="#002060" fill-opacity="1" font-family="Times New Roman,Times New Roman_MSFontService,sans-serif" font-style="normal" font-variant="normal" font-weight="700" font-stretch="normal" font-size="55" text-anchor="start" direction="ltr" writing-mode="lr-tb" unicode-bidi="normal" text-decoration="none" transform="matrix(1 0 0 1 2336.3 433)">Domain Schema </text><text fill="#002060" fill-opacity="1" font-family="Times New Roman,Times New Roman_MSFontService,sans-serif" font-style="normal" font-variant="normal" font-weight="700" font-stretch="normal" font-size="55" text-anchor="start" direction="ltr" writing-mode="lr-tb" unicode-bidi="normal" text-decoration="none" transform="matrix(1 0 0 1 2733.33 433)">Library</text><text fill="#595959" fill-opacity="1" font-family="Times New Roman,Times New Roman_MSFontService,sans-serif" font-style="italic" font-variant="normal" font-weight="400" font-stretch="normal" font-size="55" text-anchor="start" direction="ltr" writing-mode="lr-tb" unicode-bidi="normal" text-decoration="none" transform="matrix(1 0 0 1 2841.34 499)">{FO5}</text><rect x="693.5" y="1353.99" width="621.507" height="292.506" fill="#DCE4F8" fill-opacity="1"/><path d="M1315.01 1353.99 1334.5 1334.5 1334.5 1627.01 1315.01 1646.5Z" fill="#B1B7C7" fill-rule="evenodd" fill-opacity="1"/><path d="M693.5 1353.99 712.993 1334.5 1334.5 1334.5 1315.01 1353.99Z" fill="#E3E9F9" fill-rule="evenodd" fill-opacity="1"/><path d="M693.5 1353.99 712.993 1334.5 1334.5 1334.5 1334.5 1627.01 1315.01 1646.5 693.5 1646.5ZM693.5 1353.99 1315.01 1353.99 1334.5 1334.5M1315.01 1353.99 1315.01 1646.5" stroke="#002060" stroke-width="3.4375" stroke-linecap="butt" stroke-linejoin="miter" stroke-miterlimit="8" stroke-opacity="1" fill="none" fill-rule="evenodd"/><text fill="#595959" fill-opacity="1" font-family="Times New Roman,Times New Roman_MSFontService,sans-serif" font-style="italic" font-variant="normal" font-weight="400" font-stretch="normal" font-size="55" text-anchor="start" direction="ltr" writing-mode="lr-tb" unicode-bidi="normal" text-decoration="none" transform="matrix(1 0 0 1 718.73 1433)">AI1. </text><text fill="#002060" fill-opacity="1" font-family="Times New Roman,Times New Roman_MSFontService,sans-serif" font-style="normal" font-variant="normal" font-weight="700" font-stretch="normal" font-size="55" text-anchor="start" direction="ltr" writing-mode="lr-tb" unicode-bidi="normal" text-decoration="none" transform="matrix(1 0 0 1 825.866 1433)">Infrastructure </text><text fill="#002060" fill-opacity="1" font-family="Times New Roman,Times New Roman_MSFontService,sans-serif" font-style="normal" font-variant="normal" font-weight="700" font-stretch="normal" font-size="55" text-anchor="start" direction="ltr" writing-mode="lr-tb" unicode-bidi="normal" text-decoration="none" transform="matrix(1 0 0 1 718.73 1499)">Manager</text><text fill="#595959" fill-opacity="1" font-family="Times New Roman,Times New Roman_MSFontService,sans-serif" font-style="italic" font-variant="normal" font-weight="400" font-stretch="normal" font-size="55" text-anchor="start" direction="ltr" writing-mode="lr-tb" unicode-bidi="normal" text-decoration="none" transform="matrix(1 0 0 1 1021.23 1609)">{FB1, FD1}</text><rect x="693.5" y="1141.95" width="620.555" height="192.554" fill="#DCE4F8" fill-opacity="1"/><path d="M1314.05 1141.95 1334.5 1121.5 1334.5 1314.05 1314.05 1334.5Z" fill="#B1B7C7" fill-rule="evenodd" fill-opacity="1"/><path d="M693.5 1141.95 713.945 1121.5 1334.5 1121.5 1314.05 1141.95Z" fill="#E3E9F9" fill-rule="evenodd" fill-opacity="1"/><path d="M693.5 1141.95 713.945 1121.5 1334.5 1121.5 1334.5 1314.05 1314.05 1334.5 693.5 1334.5ZM693.5 1141.95 1314.05 1141.95 1334.5 1121.5M1314.05 1141.95 1314.05 1334.5" stroke="#002060" stroke-width="3.4375" stroke-linecap="butt" stroke-linejoin="miter" stroke-miterlimit="8" stroke-opacity="1" fill="none" fill-rule="evenodd"/><text fill="#595959" fill-opacity="1" font-family="Times New Roman,Times New Roman_MSFontService,sans-serif" font-style="italic" font-variant="normal" font-weight="400" font-stretch="normal" font-size="55" text-anchor="start" direction="ltr" writing-mode="lr-tb" unicode-bidi="normal" text-decoration="none" transform="matrix(1 0 0 1 718.73 1221)">AI2. </text><text fill="#002060" fill-opacity="1" font-family="Times New Roman,Times New Roman_MSFontService,sans-serif" font-style="normal" font-variant="normal" font-weight="700" font-stretch="normal" font-size="55" text-anchor="start" direction="ltr" writing-mode="lr-tb" unicode-bidi="normal" text-decoration="none" transform="matrix(1 0 0 1 825.866 1221)">AAI</text><text fill="#595959" fill-opacity="1" font-family="Times New Roman,Times New Roman_MSFontService,sans-serif" font-style="italic" font-variant="normal" font-weight="400" font-stretch="normal" font-size="55" text-anchor="start" direction="ltr" writing-mode="lr-tb" unicode-bidi="normal" text-decoration="none" transform="matrix(1 0 0 1 1017.79 1315)">{FO1, FC1}</text><rect x="693.5" y="614.336" width="619.164" height="507.164" fill="#DCE4F8" fill-opacity="1"/><path d="M1312.66 614.336 1331.5 595.5 1331.5 1102.66 1312.66 1121.5Z" fill="#B1B7C7" fill-rule="evenodd" fill-opacity="1"/><path d="M693.5 614.336 712.336 595.5 1331.5 595.5 1312.66 614.336Z" fill="#E3E9F9" fill-rule="evenodd" fill-opacity="1"/><path d="M693.5 614.336 712.336 595.5 1331.5 595.5 1331.5 1102.66 1312.66 1121.5 693.5 1121.5ZM693.5 614.336 1312.66 614.336 1331.5 595.5M1312.66 614.336 1312.66 1121.5" stroke="#002060" stroke-width="3.4375" stroke-linecap="butt" stroke-linejoin="miter" stroke-miterlimit="8" stroke-opacity="1" fill="none" fill-rule="evenodd"/><text fill="#595959" fill-opacity="1" font-family="Times New Roman,Times New Roman_MSFontService,sans-serif" font-style="italic" font-variant="normal" font-weight="400" font-stretch="normal" font-size="55" text-anchor="start" direction="ltr" writing-mode="lr-tb" unicode-bidi="normal" text-decoration="none" transform="matrix(1 0 0 1 735.872 852)">AI3. </text><text fill="#002060" fill-opacity="1" font-family="Times New Roman,Times New Roman_MSFontService,sans-serif" font-style="normal" font-variant="normal" font-weight="700" font-stretch="normal" font-size="55" text-anchor="start" direction="ltr" writing-mode="lr-tb" unicode-bidi="normal" text-decoration="none" transform="matrix(1 0 0 1 843.007 852)">Model Training &amp; </text><text fill="#002060" fill-opacity="1" font-family="Times New Roman,Times New Roman_MSFontService,sans-serif" font-style="normal" font-variant="normal" font-weight="700" font-stretch="normal" font-size="55" text-anchor="start" direction="ltr" writing-mode="lr-tb" unicode-bidi="normal" text-decoration="none" transform="matrix(1 0 0 1 734.474 918)">Reasoning Framework</text><text fill="#595959" fill-opacity="1" font-family="Times New Roman,Times New Roman_MSFontService,sans-serif" font-style="italic" font-variant="normal" font-weight="400" font-stretch="normal" font-size="55" text-anchor="start" direction="ltr" writing-mode="lr-tb" unicode-bidi="normal" text-decoration="none" transform="matrix(1 0 0 1 1154.93 1078)">{FA1}</text><path d="M862.069 648.445 1214 648.445 1214 709.445 862.069 709.445Z" fill="#0066FF" fill-rule="evenodd" fill-opacity="1"/><path d="M960.703 714.445 1101.64 714.445 1101.64 775.445 960.703 775.445Z" fill="#0066FF" fill-rule="evenodd" fill-opacity="1"/><text fill="#FFFFFF" fill-opacity="1" font-family="Times New Roman,Times New Roman_MSFontService,sans-serif" font-style="normal" font-variant="normal" font-weight="700" font-stretch="normal" font-size="55" text-anchor="start" direction="ltr" writing-mode="lr-tb" unicode-bidi="normal" text-decoration="none" transform="matrix(1 0 0 1 862.069 696)">Infrastructure </text><text fill="#FFFFFF" fill-opacity="1" font-family="Times New Roman,Times New Roman_MSFontService,sans-serif" font-style="normal" font-variant="normal" font-weight="700" font-stretch="normal" font-size="55" text-anchor="start" direction="ltr" writing-mode="lr-tb" unicode-bidi="normal" text-decoration="none" transform="matrix(1 0 0 1 960.703 762)">Layer</text><rect x="1435.5" y="1126.91" width="558.585" height="519.585" fill="#C4CFF3" fill-opacity="1"/><path d="M1994.09 1126.91 2013.5 1107.5 2013.5 1627.09 1994.09 1646.5Z" fill="#9EA6C3" fill-rule="evenodd" fill-opacity="1"/><path d="M1435.5 1126.91 1454.91 1107.5 2013.5 1107.5 1994.09 1126.91Z" fill="#D0D8F5" fill-rule="evenodd" fill-opacity="1"/><path d="M1435.5 1126.91 1454.91 1107.5 2013.5 1107.5 2013.5 1627.09 1994.09 1646.5 1435.5 1646.5ZM1435.5 1126.91 1994.09 1126.91 2013.5 1107.5M1994.09 1126.91 1994.09 1646.5" stroke="#002060" stroke-width="3.4375" stroke-linecap="butt" stroke-linejoin="miter" stroke-miterlimit="8" stroke-opacity="1" fill="none" fill-rule="evenodd"/><text fill="#595959" fill-opacity="1" font-family="Times New Roman,Times New Roman_MSFontService,sans-serif" font-style="italic" font-variant="normal" font-weight="400" font-stretch="normal" font-size="55" text-anchor="start" direction="ltr" writing-mode="lr-tb" unicode-bidi="normal" text-decoration="none" transform="matrix(1 0 0 1 1460.51 1206)">AP1. </text><text fill="#002060" fill-opacity="1" font-family="Times New Roman,Times New Roman_MSFontService,sans-serif" font-style="normal" font-variant="normal" font-weight="700" font-stretch="normal" font-size="55" text-anchor="start" direction="ltr" writing-mode="lr-tb" unicode-bidi="normal" text-decoration="none" transform="matrix(1 0 0 1 1583.11 1206)">Big Data </text><text fill="#002060" fill-opacity="1" font-family="Times New Roman,Times New Roman_MSFontService,sans-serif" font-style="normal" font-variant="normal" font-weight="700" font-stretch="normal" font-size="55" text-anchor="start" direction="ltr" writing-mode="lr-tb" unicode-bidi="normal" text-decoration="none" transform="matrix(1 0 0 1 1460.51 1272)">Pipeline Framework</text><text fill="#595959" fill-opacity="1" font-family="Times New Roman,Times New Roman_MSFontService,sans-serif" font-style="italic" font-variant="normal" font-weight="400" font-stretch="normal" font-size="55" text-anchor="start" direction="ltr" writing-mode="lr-tb" unicode-bidi="normal" text-decoration="none" transform="matrix(1 0 0 1 1460.51 1476)">{FB2, FO2, FD2, FC2}</text><rect x="1437.5" y="613.604" width="554.896" height="493.896" fill="#C4CFF3" fill-opacity="1"/><path d="M1992.4 613.604 2010.5 595.5 2010.5 1089.4 1992.4 1107.5Z" fill="#9EA6C3" fill-rule="evenodd" fill-opacity="1"/><path d="M1437.5 613.604 1455.6 595.5 2010.5 595.5 1992.4 613.604Z" fill="#D0D8F5" fill-rule="evenodd" fill-opacity="1"/><path d="M1437.5 613.604 1455.6 595.5 2010.5 595.5 2010.5 1089.4 1992.4 1107.5 1437.5 1107.5ZM1437.5 613.604 1992.4 613.604 2010.5 595.5M1992.4 613.604 1992.4 1107.5" stroke="#002060" stroke-width="3.4375" stroke-linecap="butt" stroke-linejoin="miter" stroke-miterlimit="8" stroke-opacity="1" fill="none" fill-rule="evenodd"/><text fill="#595959" fill-opacity="1" font-family="Times New Roman,Times New Roman_MSFontService,sans-serif" font-style="italic" font-variant="normal" font-weight="400" font-stretch="normal" font-size="55" text-anchor="start" direction="ltr" writing-mode="lr-tb" unicode-bidi="normal" text-decoration="none" transform="matrix(1 0 0 1 1462.73 844)">AP2. </text><text fill="#002060" fill-opacity="1" font-family="Times New Roman,Times New Roman_MSFontService,sans-serif" font-style="normal" font-variant="normal" font-weight="700" font-stretch="normal" font-size="55" text-anchor="start" direction="ltr" writing-mode="lr-tb" unicode-bidi="normal" text-decoration="none" transform="matrix(1 0 0 1 1585.34 844)">Knowledge </text><text fill="#002060" fill-opacity="1" font-family="Times New Roman,Times New Roman_MSFontService,sans-serif" font-style="normal" font-variant="normal" font-weight="700" font-stretch="normal" font-size="55" text-anchor="start" direction="ltr" writing-mode="lr-tb" unicode-bidi="normal" text-decoration="none" transform="matrix(1 0 0 1 1462.73 910)">Extraction </text><text fill="#002060" fill-opacity="1" font-family="Times New Roman,Times New Roman_MSFontService,sans-serif" font-style="normal" font-variant="normal" font-weight="700" font-stretch="normal" font-size="55" text-anchor="start" direction="ltr" writing-mode="lr-tb" unicode-bidi="normal" text-decoration="none" transform="matrix(1 0 0 1 1462.73 976)">Operators</text><text fill="#595959" fill-opacity="1" font-family="Times New Roman,Times New Roman_MSFontService,sans-serif" font-style="italic" font-variant="normal" font-weight="400" font-stretch="normal" font-size="55" text-anchor="start" direction="ltr" writing-mode="lr-tb" unicode-bidi="normal" text-decoration="none" transform="matrix(1 0 0 1 1833.61 1070)">{FA2}</text><rect x="2114.5" y="1457.72" width="624.781" height="188.78" fill="#58BCFF" fill-opacity="0.529412"/><path d="M2739.28 1457.72 2756.5 1440.5 2756.5 1629.28 2739.28 1646.5Z" fill="#4797CD" fill-rule="evenodd" fill-opacity="0.529412"/><path d="M2114.5 1457.72 2131.72 1440.5 2756.5 1440.5 2739.28 1457.72Z" fill="#79C9FF" fill-rule="evenodd" fill-opacity="0.529412"/><path d="M2114.5 1457.72 2131.72 1440.5 2756.5 1440.5 2756.5 1629.28 2739.28 1646.5 2114.5 1646.5ZM2114.5 1457.72 2739.28 1457.72 2756.5 1440.5M2739.28 1457.72 2739.28 1646.5" stroke="#002060" stroke-width="3.4375" stroke-linecap="butt" stroke-linejoin="miter" stroke-miterlimit="8" stroke-opacity="1" fill="none" fill-rule="evenodd"/><text fill="#595959" fill-opacity="1" font-family="Times New Roman,Times New Roman_MSFontService,sans-serif" font-style="italic" font-variant="normal" font-weight="400" font-stretch="normal" font-size="55" text-anchor="start" direction="ltr" writing-mode="lr-tb" unicode-bidi="normal" text-decoration="none" transform="matrix(1 0 0 1 2140.04 1539)">AM1. </text><text fill="#002060" fill-opacity="1" font-family="Times New Roman,Times New Roman_MSFontService,sans-serif" font-style="normal" font-variant="normal" font-weight="700" font-stretch="normal" font-size="55" text-anchor="start" direction="ltr" writing-mode="lr-tb" unicode-bidi="normal" text-decoration="none" transform="matrix(1 0 0 1 2274.67 1539)">Unified Data </text><text fill="#002060" fill-opacity="1" font-family="Times New Roman,Times New Roman_MSFontService,sans-serif" font-style="normal" font-variant="normal" font-weight="700" font-stretch="normal" font-size="55" text-anchor="start" direction="ltr" writing-mode="lr-tb" unicode-bidi="normal" text-decoration="none" transform="matrix(1 0 0 1 2140.04 1605)">Store</text><text fill="#595959" fill-opacity="1" font-family="Times New Roman,Times New Roman_MSFontService,sans-serif" font-style="italic" font-variant="normal" font-weight="400" font-stretch="normal" font-size="55" text-anchor="start" direction="ltr" writing-mode="lr-tb" unicode-bidi="normal" text-decoration="none" transform="matrix(1 0 0 1 2567.02 1605)">{FB3}</text><rect x="2118.5" y="612.708" width="618.792" height="386.792" fill="#58BCFF" fill-opacity="0.529412"/><path d="M2737.29 612.708 2755.5 594.5 2755.5 981.292 2737.29 999.5Z" fill="#4797CD" fill-rule="evenodd" fill-opacity="0.529412"/><path d="M2118.5 612.708 2136.71 594.5 2755.5 594.5 2737.29 612.708Z" fill="#79C9FF" fill-rule="evenodd" fill-opacity="0.529412"/><path d="M2118.5 612.708 2136.71 594.5 2755.5 594.5 2755.5 981.292 2737.29 999.5 2118.5 999.5ZM2118.5 612.708 2737.29 612.708 2755.5 594.5M2737.29 612.708 2737.29 999.5" stroke="#002060" stroke-width="3.4375" stroke-linecap="butt" stroke-linejoin="miter" stroke-miterlimit="8" stroke-opacity="1" fill="none" fill-rule="evenodd"/><text fill="#595959" fill-opacity="1" font-family="Times New Roman,Times New Roman_MSFontService,sans-serif" font-style="italic" font-variant="normal" font-weight="400" font-stretch="normal" font-size="55" text-anchor="start" direction="ltr" writing-mode="lr-tb" unicode-bidi="normal" text-decoration="none" transform="matrix(1 0 0 1 2143.84 842)">AM4. </text><text fill="#002060" fill-opacity="1" font-family="Times New Roman,Times New Roman_MSFontService,sans-serif" font-style="normal" font-variant="normal" font-weight="700" font-stretch="normal" font-size="55" text-anchor="start" direction="ltr" writing-mode="lr-tb" unicode-bidi="normal" text-decoration="none" transform="matrix(1 0 0 1 2278.48 842)">Semantic Data </text><text fill="#002060" fill-opacity="1" font-family="Times New Roman,Times New Roman_MSFontService,sans-serif" font-style="normal" font-variant="normal" font-weight="700" font-stretch="normal" font-size="55" text-anchor="start" direction="ltr" writing-mode="lr-tb" unicode-bidi="normal" text-decoration="none" transform="matrix(1 0 0 1 2143.84 908)">Provider</text><rect x="2840.5" y="1409.33" width="588.169" height="238.169" fill="#58BCFF" fill-opacity="0.341176"/><path d="M3428.67 1409.33 3447.5 1390.5 3447.5 1628.67 3428.67 1647.5Z" fill="#4797CD" fill-rule="evenodd" fill-opacity="0.341176"/><path d="M2840.5 1409.33 2859.33 1390.5 3447.5 1390.5 3428.67 1409.33Z" fill="#79C9FF" fill-rule="evenodd" fill-opacity="0.341176"/><path d="M2840.5 1409.33 2859.33 1390.5 3447.5 1390.5 3447.5 1628.67 3428.67 1647.5 2840.5 1647.5ZM2840.5 1409.33 3428.67 1409.33 3447.5 1390.5M3428.67 1409.33 3428.67 1647.5" stroke="#002060" stroke-width="3.4375" stroke-linecap="butt" stroke-linejoin="miter" stroke-miterlimit="8" stroke-opacity="1" fill="none" fill-rule="evenodd"/><text fill="#595959" fill-opacity="1" font-family="Times New Roman,Times New Roman_MSFontService,sans-serif" font-style="italic" font-variant="normal" font-weight="400" font-stretch="normal" font-size="55" text-anchor="start" direction="ltr" writing-mode="lr-tb" unicode-bidi="normal" text-decoration="none" transform="matrix(1 0 0 1 2866.09 1479)">AA1. </text><text fill="#002060" fill-opacity="1" font-family="Times New Roman,Times New Roman_MSFontService,sans-serif" font-style="normal" font-variant="normal" font-weight="700" font-stretch="normal" font-size="55" text-anchor="start" direction="ltr" writing-mode="lr-tb" unicode-bidi="normal" text-decoration="none" transform="matrix(1 0 0 1 2988.69 1479)">Data Sharing </text><text fill="#002060" fill-opacity="1" font-family="Times New Roman,Times New Roman_MSFontService,sans-serif" font-style="normal" font-variant="normal" font-weight="700" font-stretch="normal" font-size="55" text-anchor="start" direction="ltr" writing-mode="lr-tb" unicode-bidi="normal" text-decoration="none" transform="matrix(1 0 0 1 2866.09 1545)">Service Engine</text><text fill="#595959" fill-opacity="1" font-family="Times New Roman,Times New Roman_MSFontService,sans-serif" font-style="italic" font-variant="normal" font-weight="400" font-stretch="normal" font-size="55" text-anchor="start" direction="ltr" writing-mode="lr-tb" unicode-bidi="normal" text-decoration="none" transform="matrix(1 0 0 1 3257.96 1617)">{FO4}</text><rect x="2844.5" y="1125.6" width="581.897" height="265.897" fill="#58BCFF" fill-opacity="0.341176"/><path d="M3426.4 1125.6 3447.5 1104.5 3447.5 1370.4 3426.4 1391.5Z" fill="#4797CD" fill-rule="evenodd" fill-opacity="0.341176"/><path d="M2844.5 1125.6 2865.6 1104.5 3447.5 1104.5 3426.4 1125.6Z" fill="#79C9FF" fill-rule="evenodd" fill-opacity="0.341176"/><path d="M2844.5 1125.6 2865.6 1104.5 3447.5 1104.5 3447.5 1370.4 3426.4 1391.5 2844.5 1391.5ZM2844.5 1125.6 3426.4 1125.6 3447.5 1104.5M3426.4 1125.6 3426.4 1391.5" stroke="#002060" stroke-width="3.4375" stroke-linecap="butt" stroke-linejoin="miter" stroke-miterlimit="8" stroke-opacity="1" fill="none" fill-rule="evenodd"/><text fill="#595959" fill-opacity="1" font-family="Times New Roman,Times New Roman_MSFontService,sans-serif" font-style="italic" font-variant="normal" font-weight="400" font-stretch="normal" font-size="55" text-anchor="start" direction="ltr" writing-mode="lr-tb" unicode-bidi="normal" text-decoration="none" transform="matrix(1 0 0 1 2869.69 1204)">AA2. </text><text fill="#002060" fill-opacity="1" font-family="Times New Roman,Times New Roman_MSFontService,sans-serif" font-style="normal" font-variant="normal" font-weight="700" font-stretch="normal" font-size="55" text-anchor="start" direction="ltr" writing-mode="lr-tb" unicode-bidi="normal" text-decoration="none" transform="matrix(1 0 0 1 2992.29 1204)">Data</text><text fill="#002060" fill-opacity="1" font-family="Times New Roman,Times New Roman_MSFontService,sans-serif" font-style="normal" font-variant="normal" font-weight="700" font-stretch="normal" font-size="55" text-anchor="start" direction="ltr" writing-mode="lr-tb" unicode-bidi="normal" text-decoration="none" transform="matrix(1 0 0 1 3115.88 1204)">Analysis </text><text fill="#002060" fill-opacity="1" font-family="Times New Roman,Times New Roman_MSFontService,sans-serif" font-style="normal" font-variant="normal" font-weight="700" font-stretch="normal" font-size="55" text-anchor="start" direction="ltr" writing-mode="lr-tb" unicode-bidi="normal" text-decoration="none" transform="matrix(1 0 0 1 2869.69 1270)">Service Engine</text><text fill="#595959" fill-opacity="1" font-family="Times New Roman,Times New Roman_MSFontService,sans-serif" font-style="italic" font-variant="normal" font-weight="400" font-stretch="normal" font-size="55" text-anchor="start" direction="ltr" writing-mode="lr-tb" unicode-bidi="normal" text-decoration="none" transform="matrix(1 0 0 1 3017.71 1353)">{FB4, FD4, FA4}</text><rect x="2845.5" y="613.217" width="580.283" height="489.283" fill="#58BCFF" fill-opacity="0.341176"/><path d="M3425.78 613.217 3447.5 591.5 3447.5 1080.78 3425.78 1102.5Z" fill="#4797CD" fill-rule="evenodd" fill-opacity="0.341176"/><path d="M2845.5 613.217 2867.22 591.5 3447.5 591.5 3425.78 613.217Z" fill="#79C9FF" fill-rule="evenodd" fill-opacity="0.341176"/><path d="M2845.5 613.217 2867.22 591.5 3447.5 591.5 3447.5 1080.78 3425.78 1102.5 2845.5 1102.5ZM2845.5 613.217 3425.78 613.217 3447.5 591.5M3425.78 613.217 3425.78 1102.5" stroke="#002060" stroke-width="3.4375" stroke-linecap="butt" stroke-linejoin="miter" stroke-miterlimit="8" stroke-opacity="1" fill="none" fill-rule="evenodd"/><text fill="#595959" fill-opacity="1" font-family="Times New Roman,Times New Roman_MSFontService,sans-serif" font-style="italic" font-variant="normal" font-weight="400" font-stretch="normal" font-size="55" text-anchor="start" direction="ltr" writing-mode="lr-tb" unicode-bidi="normal" text-decoration="none" transform="matrix(1 0 0 1 2870.72 844)">AA3. </text><text fill="#002060" fill-opacity="1" font-family="Times New Roman,Times New Roman_MSFontService,sans-serif" font-style="normal" font-variant="normal" font-weight="700" font-stretch="normal" font-size="55" text-anchor="start" direction="ltr" writing-mode="lr-tb" unicode-bidi="normal" text-decoration="none" transform="matrix(1 0 0 1 2993.32 844)">Collaborative </text><text fill="#002060" fill-opacity="1" font-family="Times New Roman,Times New Roman_MSFontService,sans-serif" font-style="normal" font-variant="normal" font-weight="700" font-stretch="normal" font-size="55" text-anchor="start" direction="ltr" writing-mode="lr-tb" unicode-bidi="normal" text-decoration="none" transform="matrix(1 0 0 1 2870.72 910)">Workflow </text><text fill="#002060" fill-opacity="1" font-family="Times New Roman,Times New Roman_MSFontService,sans-serif" font-style="normal" font-variant="normal" font-weight="700" font-stretch="normal" font-size="55" text-anchor="start" direction="ltr" writing-mode="lr-tb" unicode-bidi="normal" text-decoration="none" transform="matrix(1 0 0 1 3119.77 910)">Framework</text><path d="M1146.69 294.069 1566.64 294.069 1566.64 355.069 1146.69 355.069Z" fill="#0066FF" fill-rule="evenodd" fill-opacity="1"/><text fill="#FFFFFF" fill-opacity="1" font-family="Times New Roman,Times New Roman_MSFontService,sans-serif" font-style="normal" font-variant="normal" font-weight="700" font-stretch="normal" font-size="55" text-anchor="start" direction="ltr" writing-mode="lr-tb" unicode-bidi="normal" text-decoration="none" transform="matrix(1 0 0 1 1146.69 342)">Adaptation Layer</text><path d="M1059 537 1059 571 1087 571 1031 605 975 571 1003 571 1003 537Z" fill="#0066FF" fill-rule="evenodd" fill-opacity="1"/><path d="M1773.75 535 1773.75 569 1802 569 1745.5 603 1689 569 1717.25 569 1717.25 535Z" fill="#0066FF" fill-rule="evenodd" fill-opacity="1"/><path d="M2468 535 2468 569 2496 569 2440 603 2384 569 2412 569 2412 535Z" fill="#0066FF" fill-rule="evenodd" fill-opacity="1"/><path d="M1532.81 648.445 1923.13 648.445 1923.13 709.445 1532.81 709.445Z" fill="#0066FF" fill-rule="evenodd" fill-opacity="1"/><path d="M1650.63 714.445 1791.56 714.445 1791.56 775.445 1650.63 775.445Z" fill="#0066FF" fill-rule="evenodd" fill-opacity="1"/><text fill="#FFFFFF" fill-opacity="1" font-family="Times New Roman,Times New Roman_MSFontService,sans-serif" font-style="normal" font-variant="normal" font-weight="700" font-stretch="normal" font-size="55" text-anchor="start" direction="ltr" writing-mode="lr-tb" unicode-bidi="normal" text-decoration="none" transform="matrix(1 0 0 1 1532.81 696)">Data Processing </text><text fill="#FFFFFF" fill-opacity="1" font-family="Times New Roman,Times New Roman_MSFontService,sans-serif" font-style="normal" font-variant="normal" font-weight="700" font-stretch="normal" font-size="55" text-anchor="start" direction="ltr" writing-mode="lr-tb" unicode-bidi="normal" text-decoration="none" transform="matrix(1 0 0 1 1650.63 762)">Layer</text><path d="M2210.88 648.445 2660.04 648.445 2660.04 709.445 2210.88 709.445Z" fill="#0066FF" fill-rule="evenodd" fill-opacity="1"/><path d="M2358.12 714.445 2499.05 714.445 2499.05 775.445 2358.12 775.445Z" fill="#0066FF" fill-rule="evenodd" fill-opacity="1"/><text fill="#FFFFFF" fill-opacity="1" font-family="Times New Roman,Times New Roman_MSFontService,sans-serif" font-style="normal" font-variant="normal" font-weight="700" font-stretch="normal" font-size="55" text-anchor="start" direction="ltr" writing-mode="lr-tb" unicode-bidi="normal" text-decoration="none" transform="matrix(1 0 0 1 2210.88 696)">Data Management </text><text fill="#FFFFFF" fill-opacity="1" font-family="Times New Roman,Times New Roman_MSFontService,sans-serif" font-style="normal" font-variant="normal" font-weight="700" font-stretch="normal" font-size="55" text-anchor="start" direction="ltr" writing-mode="lr-tb" unicode-bidi="normal" text-decoration="none" transform="matrix(1 0 0 1 2358.12 762)">Layer</text><path d="M2967.19 648.445 3302.75 648.445 3302.75 709.445 2967.19 709.445Z" fill="#0066FF" fill-rule="evenodd" fill-opacity="1"/><path d="M3057.64 714.445 3198.57 714.445 3198.57 775.445 3057.64 775.445Z" fill="#0066FF" fill-rule="evenodd" fill-opacity="1"/><text fill="#FFFFFF" fill-opacity="1" font-family="Times New Roman,Times New Roman_MSFontService,sans-serif" font-style="normal" font-variant="normal" font-weight="700" font-stretch="normal" font-size="55" text-anchor="start" direction="ltr" writing-mode="lr-tb" unicode-bidi="normal" text-decoration="none" transform="matrix(1 0 0 1 2967.19 696)">Data Analysis </text><text fill="#FFFFFF" fill-opacity="1" font-family="Times New Roman,Times New Roman_MSFontService,sans-serif" font-style="normal" font-variant="normal" font-weight="700" font-stretch="normal" font-size="55" text-anchor="start" direction="ltr" writing-mode="lr-tb" unicode-bidi="normal" text-decoration="none" transform="matrix(1 0 0 1 3057.64 762)">Layer</text><path d="M1316.5 682.188 1471.43 682.188 1471.43 702.813 1316.5 702.813ZM1461.12 661.563 1523 692.501 1461.12 723.438Z" fill="#0066FF" fill-rule="nonzero" fill-opacity="1"/><path d="M2682.5 682.188 2824.76 682.188 2824.76 702.813 2682.5 702.813ZM2814.45 661.563 2876.32 692.501 2814.45 723.438Z" fill="#0066FF" fill-rule="nonzero" fill-opacity="1"/><path d="M2029.51 682.188 2152.18 682.31 2152.16 702.935 2029.49 702.813ZM2141.89 661.675 2203.73 692.674 2141.83 723.55Z" fill="#0066FF" fill-rule="nonzero" fill-opacity="1"/><text fill="#595959" fill-opacity="1" font-family="Times New Roman,Times New Roman_MSFontService,sans-serif" font-style="italic" font-variant="normal" font-weight="400" font-stretch="normal" font-size="55" text-anchor="start" direction="ltr" writing-mode="lr-tb" unicode-bidi="normal" text-decoration="none" transform="matrix(1 0 0 1 2433.08 955)">{FO3</text><text fill="#595959" fill-opacity="1" font-family="Times New Roman,Times New Roman_MSFontService,sans-serif" font-style="italic" font-variant="normal" font-weight="400" font-stretch="normal" font-size="55" text-anchor="start" direction="ltr" writing-mode="lr-tb" unicode-bidi="normal" text-decoration="none" transform="matrix(1 0 0 1 2555.69 955)">, FC3</text><text fill="#595959" fill-opacity="1" font-family="Times New Roman,Times New Roman_MSFontService,sans-serif" font-style="italic" font-variant="normal" font-weight="400" font-stretch="normal" font-size="55" text-anchor="start" direction="ltr" writing-mode="lr-tb" unicode-bidi="normal" text-decoration="none" transform="matrix(1 0 0 1 2681.16 955)">}</text><text fill="#595959" fill-opacity="1" font-family="Times New Roman,Times New Roman_MSFontService,sans-serif" font-style="italic" font-variant="normal" font-weight="400" font-stretch="normal" font-size="55" text-anchor="start" direction="ltr" writing-mode="lr-tb" unicode-bidi="normal" text-decoration="none" transform="matrix(1 0 0 1 3244.27 1069)">{</text><text fill="#595959" fill-opacity="1" font-family="Times New Roman,Times New Roman_MSFontService,sans-serif" font-style="italic" font-variant="normal" font-weight="400" font-stretch="normal" font-size="55" text-anchor="start" direction="ltr" writing-mode="lr-tb" unicode-bidi="normal" text-decoration="none" transform="matrix(1 0 0 1 3266.04 1069)">FC4</text><text fill="#595959" fill-opacity="1" font-family="Times New Roman,Times New Roman_MSFontService,sans-serif" font-style="italic" font-variant="normal" font-weight="400" font-stretch="normal" font-size="55" text-anchor="start" direction="ltr" writing-mode="lr-tb" unicode-bidi="normal" text-decoration="none" transform="matrix(1 0 0 1 3364.01 1069)">}</text><path d="M3172 539 3172 572.5 3200 572.5 3144 606 3088 572.5 3116 572.5 3116 539Z" fill="#0066FF" fill-rule="evenodd" fill-opacity="1"/><rect x="2117.5" y="1233.36" width="619.135" height="207.136" fill="#58BCFF" fill-opacity="0.529412"/><path d="M2736.64 1233.36 2756.5 1213.5 2756.5 1420.64 2736.64 1440.5Z" fill="#4797CD" fill-rule="evenodd" fill-opacity="0.529412"/><path d="M2117.5 1233.36 2137.36 1213.5 2756.5 1213.5 2736.64 1233.36Z" fill="#79C9FF" fill-rule="evenodd" fill-opacity="0.529412"/><path d="M2117.5 1233.36 2137.36 1213.5 2756.5 1213.5 2756.5 1420.64 2736.64 1440.5 2117.5 1440.5ZM2117.5 1233.36 2736.64 1233.36 2756.5 1213.5M2736.64 1233.36 2736.64 1440.5" stroke="#002060" stroke-width="3.4375" stroke-linecap="butt" stroke-linejoin="miter" stroke-miterlimit="8" stroke-opacity="1" fill="none" fill-rule="evenodd"/><text fill="#595959" fill-opacity="1" font-family="Times New Roman,Times New Roman_MSFontService,sans-serif" font-style="italic" font-variant="normal" font-weight="400" font-stretch="normal" font-size="55" text-anchor="start" direction="ltr" writing-mode="lr-tb" unicode-bidi="normal" text-decoration="none" transform="matrix(1 0 0 1 2143.09 1312)">AM2. </text><text fill="#002060" fill-opacity="1" font-family="Times New Roman,Times New Roman_MSFontService,sans-serif" font-style="normal" font-variant="normal" font-weight="700" font-stretch="normal" font-size="55" text-anchor="start" direction="ltr" writing-mode="lr-tb" unicode-bidi="normal" text-decoration="none" transform="matrix(1 0 0 1 2277.73 1312)">Data Fusion Store</text><text fill="#595959" fill-opacity="1" font-family="Times New Roman,Times New Roman_MSFontService,sans-serif" font-style="italic" font-variant="normal" font-weight="400" font-stretch="normal" font-size="55" text-anchor="start" direction="ltr" writing-mode="lr-tb" unicode-bidi="normal" text-decoration="none" transform="matrix(1 0 0 1 2565.33 1406)">{FD3}</text><rect x="3024.5" y="454.105" width="403.395" height="83.3954" fill="#FFD579" fill-opacity="1"/><path d="M3427.9 454.105 3446.5 435.5 3446.5 518.895 3427.9 537.5Z" fill="#CDAB61" fill-rule="evenodd" fill-opacity="1"/><path d="M3024.5 454.105 3043.1 435.5 3446.5 435.5 3427.9 454.105Z" fill="#FFDD93" fill-rule="evenodd" fill-opacity="1"/><path d="M3024.5 454.105 3043.1 435.5 3446.5 435.5 3446.5 518.895 3427.9 537.5 3024.5 537.5ZM3024.5 454.105 3427.9 454.105 3446.5 435.5M3427.9 454.105 3427.9 537.5" stroke="#203C96" stroke-width="3.4375" stroke-linecap="butt" stroke-linejoin="miter" stroke-miterlimit="8" stroke-opacity="1" fill="none" fill-rule="evenodd"/><text fill="#595959" fill-opacity="1" font-family="Times New Roman,Times New Roman_MSFontService,sans-serif" font-style="italic" font-variant="normal" font-weight="400" font-stretch="normal" font-size="55" text-anchor="start" direction="ltr" writing-mode="lr-tb" unicode-bidi="normal" text-decoration="none" transform="matrix(1 0 0 1 3146.95 516)">Geography</text><rect x="3025.5" y="363.922" width="402.578" height="82.5776" fill="#73FEFF" fill-opacity="1"/><path d="M3428.08 363.922 3446.5 345.5 3446.5 428.078 3428.08 446.5Z" fill="#5CCCCD" fill-rule="evenodd" fill-opacity="1"/><path d="M3025.5 363.922 3043.92 345.5 3446.5 345.5 3428.08 363.922Z" fill="#8EFEFF" fill-rule="evenodd" fill-opacity="1"/><path d="M3025.5 363.922 3043.92 345.5 3446.5 345.5 3446.5 428.078 3428.08 446.5 3025.5 446.5ZM3025.5 363.922 3428.08 363.922 3446.5 345.5M3428.08 363.922 3428.08 446.5" stroke="#203C96" stroke-width="3.4375" stroke-linecap="butt" stroke-linejoin="miter" stroke-miterlimit="8" stroke-opacity="1" fill="none" fill-rule="evenodd"/><text fill="#595959" fill-opacity="1" font-family="Times New Roman,Times New Roman_MSFontService,sans-serif" font-style="italic" font-variant="normal" font-weight="400" font-stretch="normal" font-size="55" text-anchor="start" direction="ltr" writing-mode="lr-tb" unicode-bidi="normal" text-decoration="none" transform="matrix(1 0 0 1 3201.14 425)">Material</text><rect x="3026.5" y="272.922" width="401.578" height="82.5777" fill="#D5FC79" fill-opacity="1"/><path d="M3428.08 272.922 3446.5 254.5 3446.5 337.078 3428.08 355.5Z" fill="#ABCB61" fill-rule="evenodd" fill-opacity="1"/><path d="M3026.5 272.922 3044.92 254.5 3446.5 254.5 3428.08 272.922Z" fill="#DDFD93" fill-rule="evenodd" fill-opacity="1"/><path d="M3026.5 272.922 3044.92 254.5 3446.5 254.5 3446.5 337.078 3428.08 355.5 3026.5 355.5ZM3026.5 272.922 3428.08 272.922 3446.5 254.5M3428.08 272.922 3428.08 355.5" stroke="#203C96" stroke-width="3.4375" stroke-linecap="butt" stroke-linejoin="miter" stroke-miterlimit="8" stroke-opacity="1" fill="none" fill-rule="evenodd"/><text fill="#595959" fill-opacity="1" font-family="Times New Roman,Times New Roman_MSFontService,sans-serif" font-style="italic" font-variant="normal" font-weight="400" font-stretch="normal" font-size="55" text-anchor="start" direction="ltr" writing-mode="lr-tb" unicode-bidi="normal" text-decoration="none" transform="matrix(1 0 0 1 3228.98 334)">biology</text></g></g></svg>