<svg width="2424" height="2529" xmlns="http://www.w3.org/2000/svg" xmlns:xlink="http://www.w3.org/1999/xlink" xml:space="preserve" overflow="hidden"><g transform="translate(-1045 36)"><g><path d="M2060.64 1066.78 1977.52 984.708 1962.78 999.637 1962.4 940.301 2021.73 939.921 2006.99 954.85 2090.12 1036.92Z" fill="#00FFFF" fill-rule="evenodd" fill-opacity="1"/><path d="M2454.6 1397.49 2542.98 1485.43 2556.45 1471.89 2556.58 1525.91 2502.56 1526.04 2516.04 1512.5 2427.66 1424.57Z" fill="#0073BF" fill-rule="evenodd" fill-opacity="1"/><path d="M2074.26 1455.84 1937 1579.68 1951.65 1595.92 1889.89 1592.74 1893.06 1530.98 1907.71 1547.22 2044.96 1423.37Z" fill="#004D7F" fill-rule="evenodd" fill-opacity="1"/><path d="M2476.4 1032.28 2580.13 940.983 2565.72 924.609 2627.29 928.534 2623.37 990.104 2608.95 973.73 2505.22 1065.03Z" fill="#99CCFF" fill-rule="evenodd" fill-opacity="1"/><path d="M3137.3 1215.98 3281.39 1292.02 3279.78 1295.06 3135.7 1219.02ZM3282.95 1279.24 3300.85 1304.23 3270.11 1303.56Z" fill="#93A7E8" fill-rule="nonzero" fill-opacity="1"/><path d="M1.40729-0.986724 139.067 195.348 136.253 197.321-1.40729 0.986724ZM146.287 184.688 150.816 215.098 123.77 200.475Z" fill="#93A7E8" fill-rule="nonzero" fill-opacity="1" transform="matrix(1 0 0 -1 3136.5 1217.6)"/><path d="M1638.95 1405.84 1717.44 1427.38 1716.53 1430.69 1638.05 1409.16ZM1716.2 1414.56 1739.08 1435.1 1708.92 1441.08Z" fill="#93A7E8" fill-rule="nonzero" fill-opacity="1"/><path d="M1.63339-0.534933 95.0835 284.809 91.8167 285.879-1.63339 0.534933ZM105.091 276.709 100.583 307.123 78.9565 285.268Z" fill="#93A7E8" fill-rule="nonzero" fill-opacity="1" transform="matrix(1 0 0 -1 1638.5 1407.62)"/><path d="M2746.04 1444.8 3418.92 1404.15 3417.53 1381.06 3466.49 1424.45 3423.1 1473.41 3421.71 1450.32 2748.83 1490.97Z" fill="#0073BF" fill-rule="evenodd" fill-opacity="1"/><path d="M2749.43 1520.87 3251.66 1881.44 3266.14 1861.28 3277.51 1930.57 3208.22 1941.94 3222.7 1921.78 2720.48 1561.21Z" fill="#0073BF" fill-rule="evenodd" fill-opacity="1"/><path d="M2605.5 1683.14 2996.84 2187.24 3016.45 2172.01 3007.68 2241.68 2938.01 2232.91 2957.62 2217.69 2566.28 1713.59Z" fill="#0073BF" fill-rule="evenodd" fill-opacity="1"/><path d="M2528.21 1791.63 2430.6 2458.39 2454.72 2461.92 2400.98 2492.46 2358.25 2447.79 2382.37 2451.33 2479.98 1784.57Z" fill="#0073BF" fill-rule="evenodd" fill-opacity="1"/><path d="M2045.06 1788.46 1945.91 2425.74 1968.76 2429.29 1915.94 2467.89 1877.35 2415.07 1900.2 2418.63 1999.35 1781.35Z" fill="#004D7F" fill-rule="evenodd" fill-opacity="1"/><path d="M1846.18 1630.2 1299.95 1966.39 1312.08 1986.08 1248.44 1970.93 1263.59 1907.3 1275.71 1926.99 1821.94 1590.81Z" fill="#004D7F" fill-rule="evenodd" fill-opacity="1"/><path d="M1966.95 749.414 1625.94 167.157 1607.97 177.681 1622.86 120.694 1679.85 135.585 1661.88 146.109 2002.89 728.366Z" fill="#00FFFF" fill-rule="evenodd" fill-opacity="1"/><path d="M1810.35 921.205 1237.74 602.521 1225.74 624.09 1206.61 556.943 1273.75 537.813 1261.75 559.382 1834.36 878.066Z" fill="#00FFFF" fill-rule="evenodd" fill-opacity="1"/><path d="M2473.63 784.016 2028.93 6.10953 2008.42 17.8308 2033.04-34.2889 2090.44-29.0546 2069.93-17.3334 2514.64 760.573Z" fill="#99CCFF" fill-rule="evenodd" fill-opacity="1"/><path d="M2560.51 759.828 2781.32 113.121 2759.21 105.57 2818.54 76.4416 2847.67 135.774 2825.55 128.223 2604.74 774.93Z" fill="#99CCFF" fill-rule="evenodd" fill-opacity="1"/><path d="M2714 870.127 3165.87 422.019 3149.37 405.381 3215.64 405.658 3215.37 471.933 3198.87 455.295 2747 903.404Z" fill="#99CCFF" fill-rule="evenodd" fill-opacity="1"/><path d="M2776.17 973.23 3384.66 834.167 3379.72 812.557 3432.82 845.899 3399.47 898.994 3394.54 877.385 2786.05 1016.45Z" fill="#99CCFF" fill-rule="evenodd" fill-opacity="1"/><path d="M1740.19 1097.53 1085.51 1209.24 1089.33 1231.6 1047.13 1192.78 1074.07 1142.17 1077.88 1164.53 1732.56 1052.81Z" fill="#00FFFF" fill-rule="evenodd" fill-opacity="1"/><path d="M1978 1232C1978 1066.87 2109.18 933 2271 933 2432.82 933 2564 1066.87 2564 1232 2564 1397.13 2432.82 1531 2271 1531 2109.18 1531 1978 1397.13 1978 1232Z" fill="#C9D3F3" fill-rule="evenodd" fill-opacity="1"/><path d="M1754.54 1397.64C1798.26 1355.99 1867.46 1357.67 1909.11 1401.39L2152.58 1656.98C2194.23 1700.7 2192.55 1769.9 2148.82 1811.55 2105.1 1853.2 2035.9 1851.52 1994.25 1807.8L1750.78 1552.21C1709.13 1508.49 1710.81 1439.29 1754.54 1397.64Z" fill="#004D7F" fill-rule="evenodd" fill-opacity="1"/><text fill="#FFFFFF" fill-opacity="1" font-family="Times New Roman,Times New Roman_MSFontService,sans-serif" font-style="normal" font-variant="normal" font-weight="700" font-stretch="normal" font-size="128" text-anchor="start" direction="ltr" writing-mode="lr-tb" unicode-bidi="normal" text-decoration="none" transform="matrix(0.689733 0.724063 -0.724063 0.689733 1839.21 1555)">B</text><text fill="#FFFFFF" fill-opacity="1" font-family="Times New Roman,Times New Roman_MSFontService,sans-serif" font-style="normal" font-variant="normal" font-weight="400" font-stretch="normal" font-size="92" text-anchor="start" direction="ltr" writing-mode="lr-tb" unicode-bidi="normal" text-decoration="none" transform="matrix(0.689733 0.724063 -0.724063 0.689733 1898.09 1616)">asic</text><path d="M2399.72 1782.8C2354.91 1742.32 2351.4 1673.18 2391.88 1628.37L2628.51 1366.45C2668.99 1321.64 2738.13 1318.13 2782.93 1358.61 2827.74 1399.09 2831.25 1468.22 2790.77 1513.03L2554.14 1774.96C2513.66 1819.77 2444.53 1823.28 2399.72 1782.8Z" fill="#0070C0" fill-rule="evenodd" fill-opacity="1"/><text fill="#FFFFFF" fill-opacity="1" font-family="Times New Roman,Times New Roman_MSFontService,sans-serif" font-style="normal" font-variant="normal" font-weight="700" font-stretch="normal" font-size="128" text-anchor="start" direction="ltr" writing-mode="lr-tb" unicode-bidi="normal" text-decoration="none" transform="matrix(0.670358 -0.742038 0.742038 0.670358 2491.21 1752)">A</text><text fill="#FFFFFF" fill-opacity="1" font-family="Times New Roman,Times New Roman_MSFontService,sans-serif" font-style="normal" font-variant="normal" font-weight="400" font-stretch="normal" font-size="92" text-anchor="start" direction="ltr" writing-mode="lr-tb" unicode-bidi="normal" text-decoration="none" transform="matrix(0.670358 -0.742038 0.742038 0.670358 2553.42 1683)">daptable</text><path d="M2423.62 716.626C2467.23 674.858 2536.44 676.347 2578.21 719.954L2822.38 974.867C2864.15 1018.47 2862.66 1087.68 2819.05 1129.45 2775.44 1171.22 2706.23 1169.73 2664.46 1126.12L2420.3 871.212C2378.53 827.605 2380.02 758.395 2423.62 716.626Z" fill="#99CCFF" fill-rule="evenodd" fill-opacity="1"/><text fill="#002060" fill-opacity="1" font-family="Times New Roman,Times New Roman_MSFontService,sans-serif" font-style="normal" font-variant="normal" font-weight="700" font-stretch="normal" font-size="128" text-anchor="start" direction="ltr" writing-mode="lr-tb" unicode-bidi="normal" text-decoration="none" transform="matrix(0.691724 0.722162 -0.722162 0.691724 2434.42 796)">S</text><text fill="#002060" fill-opacity="1" font-family="Times New Roman,Times New Roman_MSFontService,sans-serif" font-style="normal" font-variant="normal" font-weight="400" font-stretch="normal" font-size="92" text-anchor="start" direction="ltr" writing-mode="lr-tb" unicode-bidi="normal" text-decoration="none" transform="matrix(0.691724 0.722162 -0.722162 0.691724 2483.96 848)">ustainable</text><path d="M1738.26 1100.02C1695.51 1057.37 1695.43 988.142 1738.08 945.396L1987.39 695.511C2030.04 652.764 2099.27 652.685 2142.01 695.333 2184.76 737.982 2184.84 807.208 2142.19 849.955L1892.88 1099.84C1850.23 1142.59 1781 1142.67 1738.26 1100.02Z" fill="#00FFFF" fill-rule="evenodd" fill-opacity="1"/><text fill="#002060" fill-opacity="1" font-family="Times New Roman,Times New Roman_MSFontService,sans-serif" font-style="normal" font-variant="normal" font-weight="700" font-stretch="normal" font-size="128" text-anchor="start" direction="ltr" writing-mode="lr-tb" unicode-bidi="normal" text-decoration="none" transform="matrix(0.706295 -0.707918 0.707918 0.706295 1817.62 1087)">E</text><text fill="#002060" fill-opacity="1" font-family="Times New Roman,Times New Roman_MSFontService,sans-serif" font-style="normal" font-variant="normal" font-weight="400" font-stretch="normal" font-size="92" text-anchor="start" direction="ltr" writing-mode="lr-tb" unicode-bidi="normal" text-decoration="none" transform="matrix(0.706295 -0.707918 0.707918 0.706295 1877.91 1027)">nd</text><text fill="#002060" fill-opacity="1" font-family="Times New Roman,Times New Roman_MSFontService,sans-serif" font-style="normal" font-variant="normal" font-weight="400" font-stretch="normal" font-size="92" text-anchor="start" direction="ltr" writing-mode="lr-tb" unicode-bidi="normal" text-decoration="none" transform="matrix(0.706295 -0.707918 0.707918 0.706295 1942.65 962)">-</text><text fill="#002060" fill-opacity="1" font-family="Times New Roman,Times New Roman_MSFontService,sans-serif" font-style="normal" font-variant="normal" font-weight="400" font-stretch="normal" font-size="92" text-anchor="start" direction="ltr" writing-mode="lr-tb" unicode-bidi="normal" text-decoration="none" transform="matrix(0.706295 -0.707918 0.707918 0.706295 1964.1 940)">to</text><text fill="#002060" fill-opacity="1" font-family="Times New Roman,Times New Roman_MSFontService,sans-serif" font-style="normal" font-variant="normal" font-weight="400" font-stretch="normal" font-size="92" text-anchor="start" direction="ltr" writing-mode="lr-tb" unicode-bidi="normal" text-decoration="none" transform="matrix(0.706295 -0.707918 0.707918 0.706295 2014.28 890)">-</text><text fill="#002060" fill-opacity="1" font-family="Times New Roman,Times New Roman_MSFontService,sans-serif" font-style="normal" font-variant="normal" font-weight="400" font-stretch="normal" font-size="92" text-anchor="start" direction="ltr" writing-mode="lr-tb" unicode-bidi="normal" text-decoration="none" transform="matrix(0.706295 -0.707918 0.707918 0.706295 2035.72 868)">end</text><path d="M1450.43 1832.06C1433.45 1802.02 1444.05 1763.91 1474.09 1746.93L1682 1629.44C1712.04 1612.47 1750.16 1623.06 1767.13 1653.1 1784.11 1683.14 1773.52 1721.25 1743.47 1738.23L1535.56 1855.72C1505.52 1872.69 1467.4 1862.1 1450.43 1832.06Z" fill="#004D7F" fill-rule="evenodd" fill-opacity="1"/><text fill="#FFFFFF" fill-opacity="1" font-family="Times New Roman,Times New Roman_MSFontService,sans-serif" font-style="normal" font-variant="normal" font-weight="700" font-stretch="normal" font-size="46" text-anchor="start" direction="ltr" writing-mode="lr-tb" unicode-bidi="normal" text-decoration="none" transform="matrix(0.870614 -0.491967 0.491967 0.870614 1503.21 1821)">1 Common</text><path d="M1942.72 2203.4C1908.67 2197.83 1885.59 2165.7 1891.17 2131.65L1924.3 1929.38C1929.88 1895.32 1962 1872.24 1996.05 1877.82L1996.05 1877.82C2030.1 1883.4 2053.19 1915.52 2047.61 1949.57L2014.48 2151.85C2008.9 2185.9 1976.78 2208.98 1942.72 2203.4Z" fill="#004D7F" fill-rule="evenodd" fill-opacity="1"/><text fill="#FFFFFF" fill-opacity="1" font-family="Times New Roman,Times New Roman_MSFontService,sans-serif" font-style="normal" font-variant="normal" font-weight="700" font-stretch="normal" font-size="46" text-anchor="start" direction="ltr" writing-mode="lr-tb" unicode-bidi="normal" text-decoration="none" transform="matrix(0.161638 -0.98685 0.98685 0.161638 1967.3 2155)">2 Complete</text><path d="M2890.56 970.238C2882.84 936.609 2903.84 903.085 2937.47 895.36L3144.91 847.707C3178.54 839.982 3212.06 860.981 3219.78 894.61 3227.51 928.239 3206.51 961.763 3172.88 969.489L2965.44 1017.14C2931.81 1024.87 2898.29 1003.87 2890.56 970.238Z" fill="#99CCFF" fill-rule="evenodd" fill-opacity="1"/><text fill="#002060" fill-opacity="1" font-family="Times New Roman,Times New Roman_MSFontService,sans-serif" font-style="normal" font-variant="normal" font-weight="700" font-stretch="normal" font-size="46" text-anchor="start" direction="ltr" writing-mode="lr-tb" unicode-bidi="normal" text-decoration="none" transform="matrix(0.974615 -0.223888 0.223888 0.974615 2944.25 975)">1 Public </text><path d="M2489.39 1862.6C2523.54 1867.54 2547.22 1899.23 2542.28 1933.38L2504.92 2191.51C2499.97 2225.66 2468.28 2249.34 2434.13 2244.4L2434.13 2244.4C2399.98 2239.45 2376.31 2207.76 2381.25 2173.61L2418.61 1915.48C2423.55 1881.33 2455.24 1857.66 2489.39 1862.6Z" fill="#0070C0" fill-rule="evenodd" fill-opacity="1"/><text fill="#FFFFFF" fill-opacity="1" font-family="Times New Roman,Times New Roman_MSFontService,sans-serif" font-style="normal" font-variant="normal" font-weight="700" font-stretch="normal" font-size="46" text-anchor="start" direction="ltr" writing-mode="lr-tb" unicode-bidi="normal" text-decoration="none" transform="matrix(-0.143244 0.989687 -0.989687 -0.143244 2465.72 1911)">1 Modalized</text><path d="M2622.52 1771.12C2649.5 1749.61 2688.81 1754.03 2710.32 1781.01L2877.78 1990.97C2899.29 2017.94 2894.87 2057.25 2867.89 2078.77 2840.92 2100.28 2801.61 2095.86 2780.09 2068.88L2612.64 1858.92C2591.12 1831.95 2595.55 1792.64 2622.52 1771.12Z" fill="#0070C0" fill-rule="evenodd" fill-opacity="1"/><text fill="#FFFFFF" fill-opacity="1" font-family="Times New Roman,Times New Roman_MSFontService,sans-serif" font-style="normal" font-variant="normal" font-weight="700" font-stretch="normal" font-size="46" text-anchor="start" direction="ltr" writing-mode="lr-tb" unicode-bidi="normal" text-decoration="none" transform="matrix(0.623533 0.781797 -0.781797 0.623533 2641.61 1822)">2 Interfaced </text><path d="M2790.8 1588.81C2809.71 1559.94 2848.43 1551.87 2877.29 1570.78L3092.3 1711.64C3121.16 1730.55 3129.23 1769.27 3110.32 1798.14 3091.42 1827 3052.69 1835.07 3023.83 1816.16L2808.82 1675.3C2779.96 1656.4 2771.89 1617.67 2790.8 1588.81Z" fill="#0070C0" fill-rule="evenodd" fill-opacity="1"/><text fill="#FFFFFF" fill-opacity="1" font-family="Times New Roman,Times New Roman_MSFontService,sans-serif" font-style="normal" font-variant="normal" font-weight="700" font-stretch="normal" font-size="46" text-anchor="start" direction="ltr" writing-mode="lr-tb" unicode-bidi="normal" text-decoration="none" transform="matrix(0.836481 0.547995 -0.547995 0.836481 2824.67 1631)">3 Complete</text><path d="M2871.99 1453.84C2869.64 1419.42 2895.65 1389.61 2930.08 1387.27L3162.96 1371.42C3197.38 1369.08 3227.19 1395.09 3229.53 1429.51 3231.87 1463.94 3205.87 1493.74 3171.44 1496.09L2938.56 1511.93C2904.14 1514.28 2874.33 1488.27 2871.99 1453.84Z" fill="#0070C0" fill-rule="evenodd" fill-opacity="1"/><text fill="#FFFFFF" fill-opacity="1" font-family="Times New Roman,Times New Roman_MSFontService,sans-serif" font-style="normal" font-variant="normal" font-weight="700" font-stretch="normal" font-size="46" text-anchor="start" direction="ltr" writing-mode="lr-tb" unicode-bidi="normal" text-decoration="none" transform="matrix(0.997693 -0.0678931 0.0678931 0.997693 2924.29 1467)">4 Inclusive</text><path d="M2754.96 849.59C2731.06 824.709 2731.84 785.159 2756.73 761.252L2952.15 573.48C2977.03 549.573 3016.58 550.362 3040.48 575.243L3040.48 575.243C3064.39 600.124 3063.6 639.674 3038.72 663.581L2843.3 851.353C2818.42 875.26 2778.87 874.47 2754.96 849.59Z" fill="#99CCFF" fill-rule="evenodd" fill-opacity="1"/><text fill="#002060" fill-opacity="1" font-family="Times New Roman,Times New Roman_MSFontService,sans-serif" font-style="normal" font-variant="normal" font-weight="700" font-stretch="normal" font-size="46" text-anchor="start" direction="ltr" writing-mode="lr-tb" unicode-bidi="normal" text-decoration="none" transform="matrix(0.721077 -0.692855 0.692855 0.721077 2803.38 826)">2 Evolutionary</text><path d="M2608.81 687.142C2575.95 676.592 2557.87 641.407 2568.42 608.555L2648.75 358.421C2659.3 325.569 2694.48 307.489 2727.34 318.039L2727.34 318.04C2760.19 328.59 2778.27 363.774 2767.72 396.627L2687.39 646.76C2676.84 679.612 2641.66 697.692 2608.8 687.142Z" fill="#99CCFF" fill-rule="evenodd" fill-opacity="1"/><text fill="#002060" fill-opacity="1" font-family="Times New Roman,Times New Roman_MSFontService,sans-serif" font-style="normal" font-variant="normal" font-weight="700" font-stretch="normal" font-size="46" text-anchor="start" direction="ltr" writing-mode="lr-tb" unicode-bidi="normal" text-decoration="none" transform="matrix(0.305755 -0.95211 0.95211 0.305755 2640.2 643)">3 Controllable</text><path d="M2399.44 598.844C2369.78 616.491 2331.44 606.759 2313.8 577.108L2151.01 303.581C2133.36 273.93 2143.09 235.588 2172.75 217.942 2202.4 200.295 2240.74 210.027 2258.39 239.678L2421.17 513.205C2438.82 542.856 2429.09 581.198 2399.44 598.844Z" fill="#99CCFF" fill-rule="evenodd" fill-opacity="1"/><text fill="#002060" fill-opacity="1" font-family="Times New Roman,Times New Roman_MSFontService,sans-serif" font-style="normal" font-variant="normal" font-weight="700" font-stretch="normal" font-size="46" text-anchor="start" direction="ltr" writing-mode="lr-tb" unicode-bidi="normal" text-decoration="none" transform="matrix(-0.51142 -0.859331 0.859331 -0.51142 2387.38 546)">4 Maintainable</text><path d="M1743.11 306.856C1773.27 290.089 1811.31 300.944 1828.08 331.102L1969.65 585.732C1986.41 615.89 1975.56 653.929 1945.4 670.696L1945.4 670.696C1915.25 687.463 1877.21 676.608 1860.44 646.451L1718.87 391.82C1702.1 361.663 1712.96 323.623 1743.11 306.856Z" fill="#00FFFF" fill-rule="evenodd" fill-opacity="1"/><text fill="#002060" fill-opacity="1" font-family="Times New Roman,Times New Roman_MSFontService,sans-serif" font-style="normal" font-variant="normal" font-weight="700" font-stretch="normal" font-size="46" text-anchor="start" direction="ltr" writing-mode="lr-tb" unicode-bidi="normal" text-decoration="none" transform="matrix(0.485931 0.873997 -0.873997 0.485931 1753.62 360)">1 Declarative</text><path d="M1414.03 674.114C1430.56 643.826 1468.51 632.674 1498.8 649.204L1685.63 751.17C1715.92 767.701 1727.07 805.654 1710.54 835.942 1694.01 866.229 1656.06 877.382 1625.77 860.851L1438.94 758.885C1408.65 742.355 1397.5 704.401 1414.03 674.114Z" fill="#00FFFF" fill-rule="evenodd" fill-opacity="1"/><text fill="#002060" fill-opacity="1" font-family="Times New Roman,Times New Roman_MSFontService,sans-serif" font-style="normal" font-variant="normal" font-weight="700" font-stretch="normal" font-size="46" text-anchor="start" direction="ltr" writing-mode="lr-tb" unicode-bidi="normal" text-decoration="none" transform="matrix(0.877776 0.479071 -0.479071 0.877776 1451.15 713)">2 Online</text><path d="M1282.17 1143.43C1276.65 1109.37 1299.8 1077.29 1333.86 1071.78L1598.13 1029.01C1632.19 1023.5 1664.27 1046.64 1669.78 1080.71 1675.3 1114.77 1652.15 1146.85 1618.09 1152.36L1353.82 1195.13C1319.76 1200.64 1287.68 1177.49 1282.17 1143.43Z" fill="#00FFFF" fill-rule="evenodd" fill-opacity="1"/><text fill="#002060" fill-opacity="1" font-family="Times New Roman,Times New Roman_MSFontService,sans-serif" font-style="normal" font-variant="normal" font-weight="700" font-stretch="normal" font-size="46" text-anchor="start" direction="ltr" writing-mode="lr-tb" unicode-bidi="normal" text-decoration="none" transform="matrix(0.987158 -0.159747 0.159747 0.987158 1335.44 1152)">3 Compliant</text><path d="M1155.97 1518.8C1186.35 1502.45 1224.24 1513.82 1240.6 1544.2L1494.99 2016.76C1511.35 2047.14 1499.98 2085.03 1469.6 2101.38 1439.22 2117.74 1401.33 2106.37 1384.97 2075.99L1130.57 1603.43C1114.22 1573.05 1125.59 1535.16 1155.97 1518.8Z" fill="#004D7F" fill-rule="evenodd" fill-opacity="1"/><text fill="#FFFFFF" fill-opacity="1" font-family="Times New Roman,Times New Roman_MSFontService,sans-serif" font-style="normal" font-variant="normal" font-weight="700" font-stretch="normal" font-size="46" text-anchor="start" direction="ltr" writing-mode="lr-tb" unicode-bidi="normal" text-decoration="none" transform="matrix(0.474017 0.880516 -0.880516 0.474017 1227.65 1687)">Domain</text><text fill="#FFFFFF" fill-opacity="1" font-family="Times New Roman,Times New Roman_MSFontService,sans-serif" font-style="normal" font-variant="normal" font-weight="700" font-stretch="normal" font-size="46" text-anchor="start" direction="ltr" writing-mode="lr-tb" unicode-bidi="normal" text-decoration="none" transform="matrix(0.474017 0.880516 -0.880516 0.474017 1301.24 1823)">-</text><text fill="#FFFFFF" fill-opacity="1" font-family="Times New Roman,Times New Roman_MSFontService,sans-serif" font-style="normal" font-variant="normal" font-weight="700" font-stretch="normal" font-size="46" text-anchor="start" direction="ltr" writing-mode="lr-tb" unicode-bidi="normal" text-decoration="none" transform="matrix(0.474017 0.880516 -0.880516 0.474017 1308.58 1837)">locked</text><path d="M1458.56 2099.7C1473.8 2068.75 1511.26 2056.01 1542.21 2071.26L2091.83 2342.01C2122.78 2357.26 2135.51 2394.72 2120.26 2425.67L2120.26 2425.67C2105.01 2456.62 2067.56 2469.35 2036.61 2454.11L1486.99 2183.35C1456.04 2168.1 1443.31 2130.65 1458.56 2099.7Z" fill="#004D7F" fill-rule="evenodd" fill-opacity="1"/><text fill="#FFFFFF" fill-opacity="1" font-family="Times New Roman,Times New Roman_MSFontService,sans-serif" font-style="normal" font-variant="normal" font-weight="700" font-stretch="normal" font-size="46" text-anchor="start" direction="ltr" writing-mode="lr-tb" unicode-bidi="normal" text-decoration="none" transform="matrix(0.897059 0.44191 -0.44191 0.897059 1683.7 2229)">Incomplete</text><path d="M2164.57 2420.37C2158.02 2386.49 2180.17 2353.72 2214.05 2347.17L2679.37 2257.23C2713.25 2250.68 2746.02 2272.83 2752.57 2306.71 2759.12 2340.59 2736.96 2373.36 2703.09 2379.91L2237.76 2469.86C2203.89 2476.41 2171.11 2454.25 2164.57 2420.37Z" fill="#0070C0" fill-rule="evenodd" fill-opacity="1"/><text fill="#FFFFFF" fill-opacity="1" font-family="Times New Roman,Times New Roman_MSFontService,sans-serif" font-style="normal" font-variant="normal" font-weight="700" font-stretch="normal" font-size="46" text-anchor="start" direction="ltr" writing-mode="lr-tb" unicode-bidi="normal" text-decoration="none" transform="matrix(0.981826 -0.189785 0.189785 0.981826 2312.64 2409)">Coarse</text><text fill="#FFFFFF" fill-opacity="1" font-family="Times New Roman,Times New Roman_MSFontService,sans-serif" font-style="normal" font-variant="normal" font-weight="700" font-stretch="normal" font-size="46" text-anchor="start" direction="ltr" writing-mode="lr-tb" unicode-bidi="normal" text-decoration="none" transform="matrix(0.981826 -0.189785 0.189785 0.981826 2448.2 2382)">-</text><text fill="#FFFFFF" fill-opacity="1" font-family="Times New Roman,Times New Roman_MSFontService,sans-serif" font-style="normal" font-variant="normal" font-weight="700" font-stretch="normal" font-size="46" text-anchor="start" direction="ltr" writing-mode="lr-tb" unicode-bidi="normal" text-decoration="none" transform="matrix(0.981826 -0.189785 0.189785 0.981826 2463.39 2379)">grained</text><path d="M2747.11 2299.81C2724.14 2274.06 2726.4 2234.57 2752.15 2211.6L3011.04 1980.68C3036.79 1957.71 3076.29 1959.97 3099.25 1985.72L3099.25 1985.72C3122.22 2011.47 3119.97 2050.96 3094.22 2073.93L2835.32 2304.85C2809.57 2327.82 2770.08 2325.56 2747.11 2299.81Z" fill="#0070C0" fill-rule="evenodd" fill-opacity="1"/><text fill="#FFFFFF" fill-opacity="1" font-family="Times New Roman,Times New Roman_MSFontService,sans-serif" font-style="normal" font-variant="normal" font-weight="700" font-stretch="normal" font-size="46" text-anchor="start" direction="ltr" writing-mode="lr-tb" unicode-bidi="normal" text-decoration="none" transform="matrix(0.746278 -0.665634 0.665634 0.746278 2823 2254)">Ill</text><text fill="#FFFFFF" fill-opacity="1" font-family="Times New Roman,Times New Roman_MSFontService,sans-serif" font-style="normal" font-variant="normal" font-weight="700" font-stretch="normal" font-size="46" text-anchor="start" direction="ltr" writing-mode="lr-tb" unicode-bidi="normal" text-decoration="none" transform="matrix(0.746278 -0.665634 0.665634 0.746278 2855.07 2226)">-</text><text fill="#FFFFFF" fill-opacity="1" font-family="Times New Roman,Times New Roman_MSFontService,sans-serif" font-style="normal" font-variant="normal" font-weight="700" font-stretch="normal" font-size="46" text-anchor="start" direction="ltr" writing-mode="lr-tb" unicode-bidi="normal" text-decoration="none" transform="matrix(0.746278 -0.665634 0.665634 0.746278 2866.61 2215)">documented</text><path d="M3101.46 2000.9C3071.33 1984.09 3060.53 1946.03 3077.34 1915.9L3222.22 1656.22C3239.03 1626.08 3277.08 1615.29 3307.22 1632.1 3337.35 1648.91 3348.15 1686.96 3331.34 1717.1L3186.46 1976.78C3169.65 2006.91 3131.59 2017.71 3101.46 2000.9Z" fill="#0070C0" fill-rule="evenodd" fill-opacity="1"/><text fill="#FFFFFF" fill-opacity="1" font-family="Times New Roman,Times New Roman_MSFontService,sans-serif" font-style="normal" font-variant="normal" font-weight="700" font-stretch="normal" font-size="46" text-anchor="start" direction="ltr" writing-mode="lr-tb" unicode-bidi="normal" text-decoration="none" transform="matrix(0.487212 -0.873284 0.873284 0.487212 3165.29 1920)">Incomplete</text><path d="M3312.51 1643.82C3278.37 1638.84 3254.73 1607.12 3259.71 1572.98L3314.01 1200.64C3318.99 1166.5 3350.71 1142.85 3384.85 1147.83L3384.85 1147.83C3419 1152.81 3442.64 1184.53 3437.66 1218.67L3383.35 1591.02C3378.37 1625.16 3346.65 1648.8 3312.51 1643.82Z" fill="#0070C0" fill-rule="evenodd" fill-opacity="1"/><text fill="#FFFFFF" fill-opacity="1" font-family="Times New Roman,Times New Roman_MSFontService,sans-serif" font-style="normal" font-variant="normal" font-weight="700" font-stretch="normal" font-size="46" text-anchor="start" direction="ltr" writing-mode="lr-tb" unicode-bidi="normal" text-decoration="none" transform="matrix(0.144331 -0.989529 0.989529 0.144331 3351.61 1490)">Exclusive</text><path d="M3224.86 599.468C3257.85 589.367 3292.79 607.925 3302.89 640.918L3424.4 1037.83C3434.5 1070.82 3415.95 1105.76 3382.95 1115.86 3349.96 1125.96 3315.02 1107.4 3304.92 1074.41L3183.41 677.497C3173.31 644.504 3191.87 609.569 3224.86 599.468Z" fill="#99CCFF" fill-rule="evenodd" fill-opacity="1"/><text fill="#002060" fill-opacity="1" font-family="Times New Roman,Times New Roman_MSFontService,sans-serif" font-style="normal" font-variant="normal" font-weight="700" font-stretch="normal" font-size="46" text-anchor="start" direction="ltr" writing-mode="lr-tb" unicode-bidi="normal" text-decoration="none" transform="matrix(0.292739 0.956192 -0.956192 0.292739 3252.99 748)">Fragmented</text><path d="M2907.64 263.837C2933.09 240.537 2972.61 242.279 2995.91 267.728L3226.42 519.506C3249.72 544.955 3247.98 584.475 3222.53 607.775 3197.08 631.076 3157.56 629.333 3134.26 603.884L2903.75 352.106C2880.45 326.657 2882.19 287.137 2907.64 263.837Z" fill="#99CCFF" fill-rule="evenodd" fill-opacity="1"/><text fill="#002060" fill-opacity="1" font-family="Times New Roman,Times New Roman_MSFontService,sans-serif" font-style="normal" font-variant="normal" font-weight="700" font-stretch="normal" font-size="46" text-anchor="start" direction="ltr" writing-mode="lr-tb" unicode-bidi="normal" text-decoration="none" transform="matrix(0.675277 0.737564 -0.737564 0.675277 2986.76 375)">Stagnated</text><path d="M2426.47 44.1255C2440.25 12.4887 2477.06-1.99281 2508.69 11.7802L2892.04 178.672C2923.68 192.445 2938.16 229.257 2924.39 260.894 2910.62 292.53 2873.8 307.012 2842.17 293.239L2458.82 126.347C2427.18 112.574 2412.7 75.7623 2426.47 44.1255Z" fill="#99CCFF" fill-rule="evenodd" fill-opacity="1"/><text fill="#002060" fill-opacity="1" font-family="Times New Roman,Times New Roman_MSFontService,sans-serif" font-style="normal" font-variant="normal" font-weight="700" font-stretch="normal" font-size="46" text-anchor="start" direction="ltr" writing-mode="lr-tb" unicode-bidi="normal" text-decoration="none" transform="matrix(0.91688 0.399163 -0.399163 0.91688 2617.63 145)">Risky</text><path d="M1843.33 100.337C1840.03 65.9897 1865.21 35.4767 1899.56 32.1846L2366.26-12.5466C2400.61-15.8387 2431.12 9.33687 2434.41 43.6845L2434.41 43.6846C2437.7 78.0322 2412.53 108.545 2378.18 111.837L1911.48 156.568C1877.13 159.86 1846.62 134.684 1843.33 100.337Z" fill="#99CCFF" fill-rule="evenodd" fill-opacity="1"/><text fill="#002060" fill-opacity="1" font-family="Times New Roman,Times New Roman_MSFontService,sans-serif" font-style="normal" font-variant="normal" font-weight="700" font-stretch="normal" font-size="46" text-anchor="start" direction="ltr" writing-mode="lr-tb" unicode-bidi="normal" text-decoration="none" transform="matrix(0.995438 -0.0954082 0.0954082 0.995438 1941.41 108)">Difficult to maintain</text><path d="M1371.27 499.19C1348.66 473.131 1351.45 433.672 1377.5 411.054L1716.88 116.498C1742.94 93.8807 1782.4 96.6707 1805.02 122.729L1805.02 122.73C1827.63 148.789 1824.84 188.248 1798.79 210.865L1459.41 505.421C1433.35 528.038 1393.89 525.248 1371.27 499.19Z" fill="#00FFFF" fill-rule="evenodd" fill-opacity="1"/><text fill="#002060" fill-opacity="1" font-family="Times New Roman,Times New Roman_MSFontService,sans-serif" font-style="normal" font-variant="normal" font-weight="700" font-stretch="normal" font-size="46" text-anchor="start" direction="ltr" writing-mode="lr-tb" unicode-bidi="normal" text-decoration="none" transform="matrix(0.755216 -0.655475 0.655475 0.755216 1469.37 436)">High skill barrier</text><path d="M1163.19 942.376C1132.29 927.028 1119.68 889.533 1135.03 858.63L1300.02 526.444C1315.37 495.541 1352.86 482.932 1383.77 498.281 1414.67 513.63 1427.28 551.124 1411.93 582.027L1246.94 914.213C1231.59 945.116 1194.1 957.725 1163.19 942.376Z" fill="#00FFFF" fill-rule="evenodd" fill-opacity="1"/><text fill="#002060" fill-opacity="1" font-family="Times New Roman,Times New Roman_MSFontService,sans-serif" font-style="normal" font-variant="normal" font-weight="700" font-stretch="normal" font-size="46" text-anchor="start" direction="ltr" writing-mode="lr-tb" unicode-bidi="normal" text-decoration="none" transform="matrix(0.444831 -0.895614 0.895614 0.444831 1214.48 876)">Link interrupted</text><path d="M1161.5 1489C1126.98 1489 1099 1461.02 1099 1426.5L1099 999.5C1099 964.982 1126.98 936.999 1161.5 936.999L1161.5 937C1196.02 937 1224 964.982 1224 999.5L1224 1426.5C1224 1461.02 1196.02 1489 1161.5 1489Z" fill="#00FFFF" fill-rule="evenodd" fill-opacity="1"/><text fill="#002060" fill-opacity="1" font-family="Times New Roman,Times New Roman_MSFontService,sans-serif" font-style="normal" font-variant="normal" font-weight="700" font-stretch="normal" font-size="46" text-anchor="start" direction="ltr" writing-mode="lr-tb" unicode-bidi="normal" text-decoration="none" transform="matrix(-1.83697e-16 -1 1 -1.83697e-16 1178.22 1352)">Out of control</text><text fill="#002060" fill-opacity="1" font-family="Times New Roman,Times New Roman_MSFontService,sans-serif" font-style="normal" font-variant="normal" font-weight="700" font-stretch="normal" font-size="83" text-anchor="start" direction="ltr" writing-mode="lr-tb" unicode-bidi="normal" text-decoration="none" transform="matrix(1 0 0 1 2157.52 1211)">Public</text><text fill="#002060" fill-opacity="1" font-family="Times New Roman,Times New Roman_MSFontService,sans-serif" font-style="normal" font-variant="normal" font-weight="700" font-stretch="normal" font-size="83" text-anchor="start" direction="ltr" writing-mode="lr-tb" unicode-bidi="normal" text-decoration="none" transform="matrix(1 0 0 1 2171.27 1310)">Stack</text><path d="M1318 1407C1318 1367.79 1349.79 1336 1389 1336L1567 1336C1606.21 1336 1638 1367.79 1638 1407 1638 1446.21 1606.21 1478 1567 1478L1389 1478C1349.79 1478 1318 1446.21 1318 1407Z" fill="#C9D3F3" fill-rule="evenodd" fill-opacity="1"/><text fill="#002060" fill-opacity="1" font-family="Times New Roman,Times New Roman_MSFontService,sans-serif" font-style="italic" font-variant="normal" font-weight="400" font-stretch="normal" font-size="46" text-anchor="start" direction="ltr" writing-mode="lr-tb" unicode-bidi="normal" text-decoration="none" transform="matrix(1 0 0 1 1379.77 1396)">The </text><text fill="#002060" fill-opacity="1" font-family="Times New Roman,Times New Roman_MSFontService,sans-serif" font-style="italic" font-variant="normal" font-weight="700" font-stretch="normal" font-size="46" text-anchor="start" direction="ltr" writing-mode="lr-tb" unicode-bidi="normal" text-decoration="none" transform="matrix(1 0 0 1 1459.98 1396)">BASE</text><text fill="#002060" fill-opacity="1" font-family="Times New Roman,Times New Roman_MSFontService,sans-serif" font-style="italic" font-variant="normal" font-weight="400" font-stretch="normal" font-size="46" text-anchor="start" direction="ltr" writing-mode="lr-tb" unicode-bidi="normal" text-decoration="none" transform="matrix(1 0 0 1 1383.78 1451)">Principles</text><path d="M2822 1217.5C2822 1181.33 2851.33 1152 2887.5 1152L3070.5 1152C3106.67 1152 3136 1181.33 3136 1217.5L3136 1217.5C3136 1253.67 3106.67 1283 3070.5 1283L2887.5 1283C2851.33 1283 2822 1253.67 2822 1217.5Z" fill="#C9D3F3" fill-rule="evenodd" fill-opacity="1"/><text fill="#002060" fill-opacity="1" font-family="Times New Roman,Times New Roman_MSFontService,sans-serif" font-style="italic" font-variant="normal" font-weight="400" font-stretch="normal" font-size="46" text-anchor="start" direction="ltr" writing-mode="lr-tb" unicode-bidi="normal" text-decoration="none" transform="matrix(1 0 0 1 2889.17 1206)">The </text><text fill="#002060" fill-opacity="1" font-family="Times New Roman,Times New Roman_MSFontService,sans-serif" font-style="italic" font-variant="normal" font-weight="400" font-stretch="normal" font-size="46" text-anchor="start" direction="ltr" writing-mode="lr-tb" unicode-bidi="normal" text-decoration="none" transform="matrix(1 0 0 1 2969.38 1206)">Open </text><text fill="#002060" fill-opacity="1" font-family="Times New Roman,Times New Roman_MSFontService,sans-serif" font-style="italic" font-variant="normal" font-weight="400" font-stretch="normal" font-size="46" text-anchor="start" direction="ltr" writing-mode="lr-tb" unicode-bidi="normal" text-decoration="none" transform="matrix(1 0 0 1 2876 1261)">Challenges</text><path d="M2152 1506 2287 1506 2287 1491 2317 1521 2287 1551 2287 1536 2152 1536Z" fill="#004D7F" fill-rule="evenodd" fill-opacity="1"/><path d="M2545.25 1324 2545.25 1223.5 2530 1223.5 2560.5 1193 2591 1223.5 2575.75 1223.5 2575.75 1324Z" fill="#0073BF" fill-rule="evenodd" fill-opacity="1"/><path d="M2363 961.25 2244.5 961.25 2244.5 976 2215 946.5 2244.5 917 2244.5 931.75 2363 931.75Z" fill="#99CCFF" fill-rule="evenodd" fill-opacity="1"/><path d="M2330.31 933.274C2355.11 909.281 2394.66 909.932 2418.66 934.729L2575.69 1097.03C2599.69 1121.82 2599.04 1161.37 2574.24 1185.37 2549.44 1209.36 2509.89 1208.71 2485.9 1183.91L2328.86 1021.62C2304.86 996.821 2305.52 957.268 2330.31 933.274Z" fill="#99CCFF" fill-rule="evenodd" fill-opacity="1"/><text fill="#002060" fill-opacity="1" font-family="Times New Roman,Times New Roman_MSFontService,sans-serif" font-style="normal" font-variant="normal" font-weight="700" font-stretch="normal" font-size="46" text-anchor="start" direction="ltr" writing-mode="lr-tb" unicode-bidi="normal" text-decoration="none" transform="matrix(0.695371 0.718651 -0.718651 0.695371 2331.46 958)">Implementation</text><path d="M1982 1152 1982 1241 1997 1241 1967 1271 1937 1241 1952 1241 1952 1152Z" stroke="#73FEFF" stroke-width="10.3125" stroke-linecap="butt" stroke-linejoin="miter" stroke-miterlimit="8" stroke-opacity="1" fill="none" fill-rule="evenodd"/><path d="M1964.3 1185.44C1939.49 1161.46 1938.82 1121.9 1962.8 1097.09L2119.75 934.71C2143.73 909.9 2183.28 909.227 2208.09 933.207 2232.9 957.187 2233.57 996.739 2209.59 1021.55L2052.64 1183.93C2028.66 1208.74 1989.11 1209.42 1964.3 1185.44Z" fill="#00FFFF" fill-rule="evenodd" fill-opacity="1"/><text fill="#002060" fill-opacity="1" font-family="Times New Roman,Times New Roman_MSFontService,sans-serif" font-style="normal" font-variant="normal" font-weight="700" font-stretch="normal" font-size="46" text-anchor="start" direction="ltr" writing-mode="lr-tb" unicode-bidi="normal" text-decoration="none" transform="matrix(0.694974 -0.719035 0.719035 0.694974 2018.63 1153)">Application</text><path d="M1961.22 1278.65C1986.14 1254.79 2025.69 1255.64 2049.55 1280.56L2205.76 1443.66C2229.63 1468.58 2228.77 1508.13 2203.85 1531.99 2178.93 1555.86 2139.38 1555 2115.52 1530.08L1959.31 1366.99C1935.45 1342.07 1936.3 1302.52 1961.22 1278.65Z" fill="#004D7F" fill-rule="evenodd" fill-opacity="1"/><text fill="#FFFFFF" fill-opacity="1" font-family="Times New Roman,Times New Roman_MSFontService,sans-serif" font-style="normal" font-variant="normal" font-weight="700" font-stretch="normal" font-size="46" text-anchor="start" direction="ltr" writing-mode="lr-tb" unicode-bidi="normal" text-decoration="none" transform="matrix(0.691679 0.722205 -0.722205 0.691679 1980.07 1322)">Functionality</text><path d="M2321.41 1529.54C2296.05 1506.14 2294.47 1466.61 2317.88 1441.25L2471.05 1275.31C2494.45 1249.95 2533.98 1248.37 2559.34 1271.77 2584.69 1295.18 2586.27 1334.7 2562.87 1360.06L2409.69 1526.01C2386.29 1551.36 2346.76 1552.94 2321.41 1529.54Z" fill="#0070C0" fill-rule="evenodd" fill-opacity="1"/><text fill="#FFFFFF" fill-opacity="1" font-family="Times New Roman,Times New Roman_MSFontService,sans-serif" font-style="normal" font-variant="normal" font-weight="700" font-stretch="normal" font-size="46" text-anchor="start" direction="ltr" writing-mode="lr-tb" unicode-bidi="normal" text-decoration="none" transform="matrix(0.678267 -0.734816 0.734816 0.678267 2391.68 1478)">Interface</text></g></g></svg>